<?xml version="1.0" encoding="UTF-8"?>
<svg width="24px" height="24px" viewBox="0 0 24 24" version="1.1" xmlns="http://www.w3.org/2000/svg" xmlns:xlink="http://www.w3.org/1999/xlink">
    <!-- Generator: Sketch 43.1 (39012) - http://www.bohemiancoding.com/sketch -->
    <title>icons/benefits/cup@3x</title>
    <desc>Created with Sketch.</desc>
    <defs></defs>
    <g id="Symbols" stroke="none" stroke-width="1" fill="none" fill-rule="evenodd">
        <g id="icons/benefits/cup" fill-rule="nonzero" fill="#004A92">
            <g id="003-cup" transform="translate(4.000000, 2.000000)">
                <path d="M16.3227438,0.754340894 L13.6473661,0.754340894 L13.6473661,0.665586985 C13.6473661,0.298046135 13.3441324,0 12.97011,0 L4.02989003,0 C3.65586756,0 3.35256534,0.298046135 3.35256534,0.665586985 L3.35256534,0.754340894 L0.677256163,0.754340894 C0.303233686,0.754340894 0,1.05231969 0,1.41992788 L0,5.05823213 C0,7.56643917 1.38151212,8.96690584 3.89324642,9.01592924 C4.12932327,9.58966468 4.43851884,10.1115484 4.81726971,10.5614459 C5.3489737,11.1929589 5.99237734,11.6654826 6.70519921,11.9596904 L6.70519921,15.374359 L4.02989003,15.374359 C3.65586756,15.374359 3.35256534,15.6723378 3.35256534,16.039946 L3.35256534,19.334413 C3.35256534,19.7019539 3.65586756,20 4.02989003,20 L12.9701785,20 C13.344201,20 13.6474347,19.7019539 13.6474347,19.334413 L13.6474347,16.039946 C13.6474347,15.6723378 13.344201,15.374359 12.9701785,15.374359 L10.2948693,15.374359 L10.2948693,11.9596904 C11.0076227,11.6654826 11.6510948,11.1929589 12.1827988,10.5614459 C12.5615497,10.1115484 12.8707453,9.58959734 13.1068221,9.01592924 C15.6184879,8.96690584 17,7.56650651 17,5.05823213 L17,1.41992788 C17,1.05231969 16.6967663,0.754340894 16.3227438,0.754340894 Z M1.35458085,5.05823213 L1.35458085,2.08544752 L3.35256534,2.08544752 L3.35256534,6.15641025 C3.35256534,6.67465766 3.4007401,7.17856169 3.49270385,7.66078229 C2.01950209,7.509537 1.35458085,6.68960711 1.35458085,5.05823213 Z M12.2928538,16.7053983 L12.2928538,18.6687587 L4.7071462,18.6687587 L4.7071462,16.7053983 L12.2928538,16.7053983 L12.2928538,16.7053983 Z M8.94028846,15.374359 L8.05971154,15.374359 L8.05971154,12.2910697 C8.20519518,12.3044704 8.35177526,12.3128205 8.5,12.3128205 C8.64822474,12.3128205 8.79480482,12.3044704 8.94028846,12.2910697 L8.94028846,15.374359 L8.94028846,15.374359 Z M8.5,10.9816465 C6.30232671,10.9816465 4.7071462,8.95236043 4.7071462,6.15641025 L4.7071462,1.33117397 L12.2927853,1.33117397 L12.2927853,6.15641025 C12.2928538,8.95236043 10.6976733,10.9816465 8.5,10.9816465 Z M15.6454191,5.05823213 C15.6454191,6.68960711 14.9804979,7.50946967 13.5072962,7.66078229 C13.5992599,7.17856169 13.6473661,6.67465766 13.6473661,6.15641025 L13.6473661,2.08544752 L15.6454191,2.08544752 L15.6454191,5.05823213 L15.6454191,5.05823213 Z" id="Shape"></path>
            </g>
        </g>
    </g>
</svg>