<?xml version="1.0" encoding="UTF-8"?>
<svg width="24px" height="24px" viewBox="0 0 24 24" version="1.1" xmlns="http://www.w3.org/2000/svg" xmlns:xlink="http://www.w3.org/1999/xlink">
    <!-- Generator: Sketch 43.1 (39012) - http://www.bohemiancoding.com/sketch -->
    <title>icons/benefits/n1 copy@3x</title>
    <desc>Created with Sketch.</desc>
    <defs></defs>
    <g id="Symbols" stroke="none" stroke-width="1" fill="none" fill-rule="evenodd">
        <g id="icons/benefits/n1-copy" fill="#004A92">
            <g id="sun" transform="translate(1.000000, 1.000000)" fill-rule="nonzero">
                <path d="M21.7373316,10.4234815 L19.7136883,8.66459259 L20.5879164,6.12955556 C20.6602132,5.92022222 20.6379908,5.68992593 20.5272493,5.49822222 C20.4165079,5.30659259 20.2279881,5.17244444 20.0106533,5.13044444 L17.3778948,4.62222222 L16.8696692,1.98955556 C16.8277429,1.77207407 16.6935198,1.5837037 16.5018889,1.47288889 C16.3101098,1.36222222 16.0798861,1.34007407 15.8705513,1.41214815 L13.3354972,2.28644444 L11.5766705,0.262814815 C11.4315585,0.0958518519 11.2212607,0 11.0000741,0 C10.7788874,0 10.5685897,0.0958518519 10.4234776,0.262814815 L8.66472501,2.28644444 L6.12967091,1.41222222 C5.92041024,1.34 5.69011239,1.36214815 5.49833332,1.47296296 C5.3067024,1.58377778 5.17255335,1.77214815 5.13055307,1.98962963 L4.62225335,4.62214815 L1.98949488,5.13037037 C1.77208601,5.1722963 1.58364029,5.30651852 1.47289881,5.49814815 C1.36215732,5.68992593 1.33993495,5.92014815 1.41215766,6.12940741 L2.28645984,8.66466667 L0.262816585,10.4234815 C0.0958524973,10.5685185 0,10.7788148 0,11 C0,11.2211852 0.0958524973,11.4314815 0.262816585,11.5765185 L2.28645984,13.3352593 L1.41215766,15.8705185 C1.33993495,16.0797778 1.36215732,16.3100741 1.47289881,16.5017778 C1.58364029,16.6934074 1.77216008,16.8275556 1.98949488,16.8695556 L4.62225335,17.3777778 L5.13047899,20.0104444 C5.1724052,20.2279259 5.30662833,20.4162963 5.49833332,20.5271111 C5.69003832,20.6379259 5.92033616,20.6602222 6.12959683,20.5878519 L8.66465094,19.7135556 L10.4234035,21.7371852 C10.5685156,21.9041481 10.7788133,22 11,22 C11.2211867,22 11.4314844,21.9041481 11.5765965,21.7371852 L13.3353491,19.7135556 L15.8704032,20.5878519 C16.0797379,20.6600741 16.3099617,20.6379259 16.5017408,20.5271111 C16.6933717,20.4162963 16.8275207,20.2279259 16.869521,20.0104444 L17.3777467,17.3778519 L20.0105051,16.8696296 C20.227914,16.8277037 20.4162856,16.6934815 20.5271012,16.5018519 C20.6378427,16.3100741 20.6600651,16.0798519 20.5878423,15.8705926 L19.7135402,13.3353333 L21.7371834,11.5765926 C21.9041475,11.4315556 22,11.2212593 22,11.0000741 C22,10.7788889 21.9042957,10.5685185 21.7373316,10.4234815 Z M18.3223456,12.5203704 C18.0872329,12.7248148 17.9997508,13.0514815 18.1013071,13.3459259 L18.8566455,15.5362222 L16.5809265,15.9755556 C16.2744059,16.0347407 16.0348487,16.2743704 15.9756631,16.5808148 L15.5363268,18.8564444 L13.346238,18.1011852 C13.0516434,17.9993333 12.7249746,18.0871111 12.5206028,18.3221481 L11.0000741,20.0716296 L9.47961939,18.3222222 C9.33184062,18.1522222 9.12006141,18.0594074 8.90287477,18.0594074 C8.81968902,18.0594074 8.73554031,18.073037 8.6539842,18.1011852 L6.46389538,18.8564444 L6.02448501,16.5807407 C5.96529943,16.2742222 5.72574226,16.0345926 5.41922168,15.9754815 L3.14357672,15.5362222 L3.89891514,13.3459259 C4.00047138,13.0514074 3.91291524,12.7247407 3.67787662,12.5203704 L1.92838336,11 L3.67780254,9.47962963 C3.91291524,9.27518519 4.00047138,8.94851852 3.89884107,8.654 L3.14357672,6.4637037 L5.41929575,6.02437037 C5.72581634,5.96518519 5.9653735,5.72555556 6.02455909,5.41911111 L6.46389538,3.14348148 L8.6539842,3.89874074 C8.94872693,4.00066667 9.27524764,3.91288889 9.47961939,3.67777778 L11.0000741,1.92837037 L12.5205288,3.67777778 C12.7249746,3.91296296 13.0516434,4.00051852 13.3461639,3.89874074 L15.5362528,3.14348148 L15.9755891,5.41918519 C16.0347746,5.7257037 16.2743318,5.96533333 16.5808524,6.02444444 L18.8565714,6.4637037 L18.1013071,8.65377778 C17.9996768,8.9482963 18.0871588,9.27503704 18.3222715,9.47940741 L20.0716907,10.9999259 L18.3223456,12.5203704 Z" id="Shape"></path>
            </g>
            <path d="M10.9762867,12.7629091 L12.0256424,12.7629091 C13.1332957,12.7629091 13.8212067,13.3225655 13.8212067,14.2320072 C13.8212067,15.0540025 13.0866577,15.6369779 12.0606209,15.6369779 C10.9996057,15.6369779 10.3350137,15.0831513 10.2533971,14.2786452 L9,14.2786452 C9.08161656,15.730254 10.2475674,16.727142 12.0606209,16.727142 C13.8153769,16.727142 15.1503906,15.7185945 15.1503906,14.2494964 C15.1503906,13.0718861 14.334225,12.2965288 13.0691684,12.2090825 L13.0691684,12.1857635 C14.1126944,11.9992113 14.8006054,11.2471731 14.8006054,10.1978173 C14.8006054,8.90361189 13.6404843,8 12.0489614,8 C10.3816517,8 9.26816869,8.95024993 9.16906287,10.4251777 L10.399141,10.4251777 C10.4749278,9.59735264 11.0812222,9.07267476 11.9906639,9.07267476 C12.9875518,9.07267476 13.5238892,9.59152288 13.5238892,10.3727099 C13.5238892,11.1655565 12.9001055,11.7368724 11.9906639,11.7368724 L10.9762867,11.7368724 L10.9762867,12.7629091 Z" id="3"></path>
        </g>
    </g>
</svg>