<?xml version="1.0" encoding="UTF-8"?>
<svg width="24px" height="24px" viewBox="0 0 24 24" version="1.1" xmlns="http://www.w3.org/2000/svg" xmlns:xlink="http://www.w3.org/1999/xlink">
    <!-- Generator: Sketch 43.1 (39012) - http://www.bohemiancoding.com/sketch -->
    <title>icons/benefits/happy@3x</title>
    <desc>Created with Sketch.</desc>
    <defs></defs>
    <g id="Symbols" stroke="none" stroke-width="1" fill="none" fill-rule="evenodd">
        <g id="icons/benefits/happy" fill-rule="nonzero" fill="#004A92">
            <g id="heart-in-square" transform="translate(2.000000, 2.000000)">
                <path d="M17.7464646,0 L2.25353535,0 C1.01097643,0 0,1.01097643 0,2.25353535 L0,17.7464646 C0,18.9890236 1.01097643,20 2.25353535,20 L17.7464646,20 C18.9890236,20 20,18.9890236 20,17.7464646 L20,2.25353535 C20,1.01097643 18.9890236,0 17.7464646,0 Z M18.5915825,17.7464646 C18.5915825,18.2124579 18.2124579,18.5915152 17.7464646,18.5915152 L2.25353535,18.5915152 C1.78754209,18.5915152 1.40841751,18.2124579 1.40841751,17.7464646 L1.40841751,2.25353535 C1.40841751,1.78754209 1.78754209,1.40841751 2.25353535,1.40841751 L17.7464646,1.40841751 C18.2124579,1.40841751 18.5915825,1.78754209 18.5915825,2.25353535 L18.5915825,17.7464646 Z" id="Shape"></path>
                <path d="M13.4060045,3.33333333 C11.987387,3.33333333 10.734969,4.09307214 10.0000329,5.24453404 C9.26509679,4.09314106 8.0126788,3.33333333 6.5940613,3.33333333 C4.33655073,3.33333333 2.5,5.25700798 2.5,7.62161231 C2.5,12.7645974 9.39859592,16.4366913 9.69230719,16.5905136 C9.78915821,16.6412364 9.89456266,16.6666667 10.0000329,16.6666667 C10.1055031,16.6666667 10.2109076,16.6413053 10.3077586,16.5905136 C10.6014699,16.4367602 17.5,12.7645974 17.5,7.62161231 C17.5,5.25700798 15.6634493,3.33333333 13.4060045,3.33333333 Z M9.99963812,15.1287194 C8.71721738,14.3864854 3.87617938,11.3378129 3.87617938,7.62154339 C3.87617938,6.05182543 5.09543642,4.77472821 6.59412709,4.77472821 C8.09275196,4.77472821 9.312009,6.05175652 9.312009,7.62154339 C9.312009,8.01953791 9.62012949,8.34227529 10.0000987,8.34227529 C10.3800679,8.34227529 10.6881884,8.01953791 10.6881884,7.62154339 C10.6881884,6.05182543 11.9073796,4.77472821 13.4060703,4.77472821 C14.9046952,4.77472821 16.124018,6.05175652 16.124018,7.62154339 C16.1238864,11.3304388 11.2814009,14.3853827 9.99963812,15.1287194 Z" id="Shape"></path>
            </g>
        </g>
    </g>
</svg>