<?xml version="1.0" encoding="UTF-8"?>
<svg width="85px" height="45px" viewBox="0 0 85 45" version="1.1" xmlns="http://www.w3.org/2000/svg" xmlns:xlink="http://www.w3.org/1999/xlink">
    <!-- Generator: Sketch 43.1 (39012) - http://www.bohemiancoding.com/sketch -->
    <title>logo@3x</title>
    <desc>Created with Sketch.</desc>
    <defs></defs>
    <g id="side-nav" stroke="none" stroke-width="1" fill="none" fill-rule="evenodd">
        <g id="1_splash-screen" transform="translate(-11.000000, -136.000000)">
            <g id="navbar">
                <g id="logo" transform="translate(11.000000, 136.000000)">
                    <path d="M42.0003043,3 C62.9297719,3 80,11.9847184 80,23.0005981 C80,34.0158797 62.9297719,43 42.0003043,43 C21.0708366,43 4,34.0158797 4,23.0005981 C4,11.9847184 21.0708366,3 42.0003043,3" id="Fill-1" fill="#004A92"></path>
                    <g id="Group-5" fill="#004A92">
                        <path d="M42.3288381,0.52032 C65.6426871,0.52032 84.6576151,10.51092 84.6576151,22.75992 C84.6576151,35.00952 65.6426871,45.00012 42.3288381,45.00012 C19.0149892,45.00012 6.11510791e-05,35.00952 6.11510791e-05,22.75992 C6.11510791e-05,10.51092 19.0149892,0.52032 42.3288381,0.52032 M42.3288381,1.77672 C64.3254928,1.77672 82.2659964,11.20272 82.2659964,22.75992 C82.2659964,34.31712 64.3254928,43.74312 42.3288381,43.74312 C20.3321835,43.74312 2.39167986,34.31712 2.39167986,22.75992 C2.39167986,11.20272 20.3321835,1.77672 42.3288381,1.77672" id="Fill-3"></path>
                    </g>
                    <path d="M42.5,2 C64.806751,2 83,11.657907 83,23.5003044 C83,35.3414841 64.806751,45 42.5,45 C20.193249,45 2,35.3414841 2,23.5003044 C2,11.657907 20.193249,2 42.5,2 M42.5,3.21462047 C63.5465381,3.21462047 80.7117187,12.3270137 80.7117187,23.5003044 C80.7117187,34.6723774 63.5465381,43.7853795 42.5,43.7853795 C21.4534619,43.7853795 4.28828132,34.6723774 4.28828132,23.5003044 C4.28828132,12.3270137 21.4534619,3.21462047 42.5,3.21462047" id="Fill-6" fill="#FFFFFF"></path>
                    <path d="M24.6678705,35.8912867 C24.6678705,36.5578373 24.4560542,37.0793596 24.0324217,37.4558533 C23.6282665,37.8184244 23.0835092,38 22.3981497,38 C21.7413975,38 21.2136828,37.8300267 20.8137883,37.4883397 C20.5045853,37.2255482 20.2812043,36.8716788 20.1430368,36.4261515 C20.0480847,36.1181111 20,35.8083304 20,35.5002901 C20,35.1870287 20.0456501,34.882469 20.1357328,34.5877712 C20.2739003,34.137603 20.4972813,33.7814132 20.807093,33.5186216 C21.2112482,33.1728739 21.7413975,33 22.3981497,33 C22.8881269,33 23.3129768,33.1015199 23.6720906,33.3039796 C24.0312043,33.5070194 24.2941487,33.7930154 24.4609236,34.1613876 L23.5686171,34.673628 C23.459057,34.4444831 23.3190635,34.2530456 23.1474193,34.0975751 C22.919169,33.892795 22.6696153,33.7895347 22.3981497,33.7895347 C21.9891251,33.7895347 21.6896608,33.9705302 21.4991479,34.3348416 C21.346981,34.6248985 21.2708976,35.0135747 21.2708976,35.5002901 C21.2708976,36.0183316 21.3512417,36.41861 21.5131472,36.6993851 C21.7085295,37.0404919 22.0201672,37.2110454 22.4480604,37.2110454 C22.8047395,37.2110454 23.0737705,37.08168 23.2545447,36.8229493 C23.3829735,36.6460146 23.4614916,36.4197703 23.490099,36.143056 L22.5478818,36.143056 L22.5478818,35.3541014 L24.6392631,35.3541014 C24.6483931,35.4126929 24.6556971,35.5014503 24.6605665,35.6192134 C24.6654358,35.7369764 24.6678705,35.8280543 24.6678705,35.8912867 L24.6678705,35.8912867 Z M34.6311475,37.8845574 L33.3754666,37.8845574 L32.1118731,35.979464 L31.6985879,35.979464 L31.6985879,37.8845574 L30.6066385,37.8845574 L30.6066385,33.1293654 L32.5543743,33.1293654 C33.0686983,33.1293654 33.4752881,33.2204432 33.7747525,33.4002785 C34.1697776,33.6410256 34.3675945,34.0273814 34.3675945,34.5616661 C34.3675945,34.9364195 34.2318617,35.2462003 33.960396,35.4910082 C33.7844912,35.6487992 33.5611102,35.7735236 33.2896445,35.8640213 L34.6311475,37.8845574 Z M33.1685197,34.5616661 C33.1685197,34.2721893 33.0516556,34.0830723 32.818536,33.9931547 C32.6949765,33.9432649 32.4928989,33.9189001 32.2116945,33.9189001 L31.6985879,33.9189001 L31.6985879,35.1905093 L32.340732,35.1905093 C32.564113,35.1905093 32.7351485,35.1609235 32.8544473,35.1023321 C33.0638289,35.0037127 33.1685197,34.8232974 33.1685197,34.5616661 L33.1685197,34.5616661 Z M44.9876238,35.5002901 C44.9876238,35.8036895 44.9401477,36.1088293 44.8445869,36.4128089 C44.7021587,36.8676181 44.4781691,37.2232278 44.1738354,37.4819585 C43.7696802,37.8277062 43.2413569,38 42.5894741,38 C41.9375913,38 41.4123113,37.8300267 41.0124168,37.4883397 C40.6983444,37.2209073 40.4725288,36.8652976 40.3343613,36.4197703 C40.2394092,36.1157907 40.1913245,35.8083304 40.1913245,35.5002901 C40.1913245,35.2009514 40.2394092,34.898132 40.3343613,34.5941525 C40.4773981,34.1439842 40.7007791,33.7883745 41.0051128,33.5250029 C41.4141373,33.1751943 41.9424606,33 42.5894741,33 C43.2413569,33 43.7672456,33.1728739 44.1671401,33.5186216 C44.4812125,33.7860541 44.7070281,34.1416638 44.8445869,34.5877712 C44.9401477,34.8911707 44.9876238,35.1963105 44.9876238,35.5002901 L44.9876238,35.5002901 Z M43.7173348,35.5002901 C43.7173348,35.0953707 43.6649894,34.7594849 43.5602987,34.4914723 C43.3795244,34.0233206 43.0557134,33.7895347 42.5894741,33.7895347 C42.1232349,33.7895347 41.8000325,34.02042 41.6192582,34.484511 C41.5139588,34.7531036 41.462222,35.0907298 41.462222,35.5002901 C41.462222,35.9046293 41.5139588,36.2405151 41.6192582,36.5091078 C41.8000325,36.9772595 42.1232349,37.2110454 42.5894741,37.2110454 C43.0557134,37.2110454 43.3795244,36.97958 43.5602987,36.5160691 C43.6649894,36.2468964 43.7173348,35.9092702 43.7173348,35.5002901 L43.7173348,35.5002901 Z M55.0154196,36.2538578 C55.0154196,36.734772 54.9155981,37.1054647 54.7153465,37.3682562 C54.3921441,37.7888386 53.8090407,38 52.9672537,38 C52.124858,38 51.5417546,37.7888386 51.2185522,37.3682562 C51.0189093,37.1054647 50.9190878,36.734772 50.9190878,36.2538578 L50.9190878,33.1293654 L52.0110372,33.1293654 L52.0110372,36.1981668 C52.0110372,36.5247709 52.0652086,36.7631976 52.1747687,36.9117067 C52.3226749,37.1112658 52.5862279,37.2110454 52.9672537,37.2110454 C53.3525402,37.2110454 53.6160932,37.1135863 53.75913,36.9180879 C53.8686901,36.7695788 53.9234702,36.5294118 53.9234702,36.1981668 L53.9234702,33.1293654 L55.0154196,33.1293654 L55.0154196,36.2538578 Z M65,34.765286 C65,35.2496809 64.8478331,35.622694 64.5434994,35.8854856 C64.196559,36.183664 63.6560623,36.3333333 62.9232267,36.3333333 L62.324298,36.3333333 L62.324298,37.8845574 L61.2323486,37.8845574 L61.2323486,33.1293654 L62.7661906,33.1293654 C63.365728,33.1293654 63.8392712,33.2134818 64.1868203,33.3811347 C64.729143,33.6433461 65,34.1045365 65,34.765286 L65,34.765286 Z M63.7297111,34.744982 C63.7297111,34.4926326 63.665801,34.2982945 63.5373722,34.1625479 C63.380336,34.000116 63.1356517,33.9189001 62.8021019,33.9189001 L62.324298,33.9189001 L62.324298,35.5443787 L62.8021019,35.5443787 C63.0973056,35.5443787 63.3182519,35.4875276 63.4655494,35.3755656 C63.6414543,35.2438798 63.7297111,35.0344588 63.7297111,34.744982 L63.7297111,34.744982 Z" id="Fill-8" fill="#FFFFFF"></path>
                    <path d="M29,8 L36.9689297,8 C38.5474629,8 39.7259155,8.07128853 40.501261,8.21985622 C41.2760012,8.36363141 41.96782,8.66555931 42.580349,9.12623897 C43.192878,9.5875177 43.6988803,10.1973641 44.1074347,10.9653633 C44.5153838,11.7291689 44.7199637,12.5894238 44.7199637,13.5371419 C44.7199637,14.5669317 44.4693836,15.5140508 43.9676183,16.3749047 C43.4622213,17.2351596 42.7800868,17.8809498 41.9212146,18.3110772 C43.1329567,18.7004684 44.0705135,19.3660277 44.7199637,20.3035617 C45.3748613,21.2464873 45.6992838,22.3523581 45.6992838,23.6229714 C45.6992838,24.6216098 45.4904671,25.5950877 45.0679915,26.5428058 C44.645516,27.4851323 44.0705135,28.2429474 43.3417734,28.8066659 C42.6130334,29.3703845 41.7123979,29.7184403 40.6404721,29.8520314 C39.9716534,29.9287115 38.3519621,29.9796318 35.785635,30 L29,30 L29,8 Z M53,8 L48.9761929,8 L48.9761929,30 L53,30 L53,28.9630215 C51.8269949,28.9630215 50.875517,28.021893 50.875517,26.8609084 C50.875517,25.6993247 51.8269949,24.7575972 53,24.7575972 L53,8 Z M33.0286492,11.6620738 L33.0286492,16.7487202 L35.6645819,16.7487202 C37.2334308,16.7487202 38.2085141,16.7229605 38.588621,16.6720401 C39.2755977,16.5845768 39.8185211,16.3239843 40.2131544,15.8884653 C40.6077878,15.4529463 40.8026833,14.8790437 40.8026833,14.1673565 C40.8026833,13.4856225 40.63563,12.9326871 40.2966811,12.5079512 C39.9534954,12.0820172 39.4474932,11.8262172 38.7792797,11.7387539 C38.3798043,11.6878336 37.2334308,11.6620738 35.3401594,11.6620738 L33.0286492,11.6620738 Z M33.0286492,20.4113931 L33.0286492,26.2917983 L36.751034,26.2917983 C38.2036719,26.2917983 39.1224654,26.251062 39.5128619,26.1588062 C40.1108645,26.0407908 40.5981035,25.7436554 40.9739736,25.2829757 C41.3504489,24.8163054 41.5405024,24.1914824 41.5405024,23.4127001 C41.5405024,22.7525324 41.3922122,22.1942054 41.1041057,21.7329267 C40.8117623,21.271648 40.3941289,20.9337763 39.8463634,20.7235051 C39.2992031,20.5132339 38.1062242,20.4113931 36.2771109,20.4113931 L33.0286492,20.4113931 Z" id="Fill-10" fill="#FFFFFF"></path>
                    <path d="M54,25 C55.1042023,25 56,25.8951145 56,27 C56,28.1042023 55.1042023,29 54,29 C52.8957977,29 52,28.1042023 52,27 C52,25.8951145 52.8957977,25 54,25" id="Fill-12" fill="#FFFFFF"></path>
                </g>
            </g>
        </g>
    </g>
</svg>