<?xml version="1.0" encoding="UTF-8"?>
<svg width="24px" height="24px" viewBox="0 0 24 24" version="1.1" xmlns="http://www.w3.org/2000/svg" xmlns:xlink="http://www.w3.org/1999/xlink">
    <!-- Generator: Sketch 43.1 (39012) - http://www.bohemiancoding.com/sketch -->
    <title>icons/benefits/like@3x</title>
    <desc>Created with Sketch.</desc>
    <defs></defs>
    <g id="Symbols" stroke="none" stroke-width="1" fill="none" fill-rule="evenodd">
        <g id="icons/benefits/like" fill-rule="nonzero" fill="#004A92">
            <g id="001-thumb-up" transform="translate(2.000000, 3.000000)">
                <path d="M19.1897576,3.735299 L16.6891313,3.735299 C16.0120404,3.735299 15.4209293,4.11238416 15.1105253,4.66895559 L13.7694949,4.2181363 C13.1093737,3.99622082 12.0648889,3.47637384 11.4888384,3.08303009 L7.52026263,0.373051376 C7.01810101,0.0301948207 6.4149697,-0.0834013715 5.86479798,0.0617136638 C5.34432323,0.199055953 4.92319192,0.545977155 4.67889899,1.03865518 C4.22538384,1.95377127 4.438,3.29767199 5.1629596,4.09790831 L5.87158586,4.86855116 L2.16151515,4.86855116 C1.58313131,4.8637021 1.04363636,5.07820138 0.634383838,5.48873074 C0.225414141,5.8991888 0,6.44484986 0,7.02531 L0,7.09191316 C0,7.62530897 0.191616162,8.11413627 0.50859596,8.49300418 C0.191616162,8.87187208 0,9.36069938 0,9.89402388 L0,10.0026284 C0,10.8480037 0.480949495,11.5818508 1.18109091,11.941893 C1.06725253,12.2066655 1.00375758,12.4983931 1.00375758,12.8048104 L1.00375758,12.9133436 C1.00375758,13.8060685 1.53971717,14.5745721 2.3039899,14.9095846 C2.205,15.1590969 2.14984848,15.4310004 2.14984848,15.7156683 L2.14984848,15.8241302 C2.14984848,17.0239142 3.11768687,18 4.30726263,18 L9.67322222,18 C10.5538081,18 11.8608283,17.6888762 12.6487879,17.2916104 L15.1751515,16.0175218 C15.4989192,16.5147637 16.0565152,16.8440001 16.6891313,16.8440001 L19.1897576,16.8440001 C20.1878586,16.8440001 21,16.0250806 21,15.0184743 L21,5.56089606 C21,4.55428975 20.1879293,3.735299 19.1897576,3.735299 Z M2.15755556,7.71829669 C1.8149798,7.71829669 1.53639394,7.43726555 1.53639394,7.09191316 L1.53639394,7.02531 C1.53639394,6.86029958 1.60094949,6.70477335 1.7180404,6.58718382 C1.83442424,6.47037869 1.98785859,6.42345698 2.14956566,6.42345698 L2.15281818,6.42345698 L7.61925253,6.42345698 L7.62413131,6.42345698 C8.04611111,6.42345698 8.38960606,6.09700163 8.39222222,5.67078415 C8.39342424,5.47318525 8.32059596,5.29284327 8.20060606,5.15528706 L6.29724242,3.05279482 C5.9700101,2.6916117 5.89739394,2.04583196 6.05323232,1.73142794 C6.09784848,1.64150653 6.16530303,1.584031 6.25382828,1.56064145 C6.37565657,1.52819558 6.52308081,1.5632799 6.65890909,1.65605369 L10.6275556,4.36603241 C11.3215455,4.83995601 12.4882828,5.42063008 13.2837374,5.68804107 L14.8789596,6.22443188 L14.8789596,14.43452 L11.9616566,15.9057797 C11.3859596,16.1960097 10.3165859,16.4506563 9.67322222,16.4506563 L4.30726263,16.4506563 C3.96475758,16.4506563 3.68631313,16.1696252 3.68631313,15.8242728 L3.68631313,15.7158109 C3.68631313,15.3703159 3.96475758,15.0893561 4.30726263,15.0893561 L5.21033333,15.0893561 C5.63457576,15.0893561 5.97849495,14.7425062 5.97849495,14.3146486 C5.97849495,13.886791 5.63457576,13.5399411 5.21033333,13.5399411 L3.16117172,13.5399411 C2.81866667,13.5399411 2.54015152,13.2589813 2.54015152,12.9135576 L2.54015152,12.8050244 C2.54015152,12.459672 2.81866667,12.1787121 3.16117172,12.1787121 L4.06417172,12.1787121 C4.48841414,12.1787121 4.83233333,11.8317909 4.83233333,11.4039333 C4.83233333,10.9760757 4.48841414,10.6292259 4.06417172,10.6292259 L3.16117172,10.6292259 L2.15755556,10.6292259 C1.8149798,10.6292259 1.53639394,10.348266 1.53639394,10.0028423 L1.53639394,9.89423781 C1.53639394,9.54888542 1.8149798,9.2679256 2.15755556,9.2679256 L3.65449495,9.2679256 C4.07873737,9.2679256 4.42265657,8.92100439 4.42265657,8.49321811 C4.42265657,8.06536051 4.07873737,7.71851061 3.65449495,7.71851061 L2.15755556,7.71851061 L2.15755556,7.71829669 Z M19.4636768,15.0186169 C19.4636768,15.1682245 19.3382424,15.2946564 19.1898283,15.2946564 L16.689202,15.2946564 C16.5407172,15.2946564 16.4153535,15.1682245 16.4153535,15.0186169 L16.4153535,5.56089606 C16.4153535,5.41128852 16.5407172,5.28478529 16.689202,5.28478529 L19.1898283,5.28478529 C19.3383131,5.28478529 19.4636768,5.41128852 19.4636768,5.56089606 L19.4636768,15.0186169 Z" id="Shape"></path>
            </g>
        </g>
    </g>
</svg>