<?xml version="1.0" encoding="UTF-8"?>
<svg width="24px" height="24px" viewBox="0 0 24 24" version="1.1" xmlns="http://www.w3.org/2000/svg" xmlns:xlink="http://www.w3.org/1999/xlink">
    <!-- Generator: Sketch 43.1 (39012) - http://www.bohemiancoding.com/sketch -->
    <title>icons/benefits/n1@3x</title>
    <desc>Created with Sketch.</desc>
    <defs></defs>
    <g id="Symbols" stroke="none" stroke-width="1" fill="none" fill-rule="evenodd">
        <g id="icons/benefits/n1" fill-rule="nonzero" fill="#004A92">
            <g id="002-medal" transform="translate(2.000000, 2.000000)">
                <path d="M19.9184232,0.374888889 C19.7949084,0.144383838 19.5504865,0 19.2840421,0 L13.5441859,0 C13.3095438,0 13.0897525,0.112212121 12.9560232,0.300363636 L9.99999687,4.45709091 L7.04397055,0.300363636 C6.91031368,0.112212121 6.69044994,0 6.45580788,0 L0.715951648,0 C0.449507221,0 0.20508539,0.144383838 0.0815705054,0.374888889 C-0.0419443795,0.605393939 -0.0241234636,0.883626263 0.127788978,1.09737374 L5.12431018,8.12353535 C4.86308163,8.22768687 4.67864239,8.47791919 4.67864239,8.77036364 C4.67864239,9.15628283 4.99927399,9.46923232 5.39466651,9.46923232 L5.89176865,9.46923232 C4.36083606,10.6543535 3.37713599,12.4848889 3.37713599,14.5357475 C3.37706354,18.1001616 6.34808552,21 9.99999687,21 C13.6519082,21 16.6229302,18.1001616 16.6229302,14.5357475 C16.6229302,12.4848889 15.6392301,10.6542828 14.1082975,9.46923232 L14.6053997,9.46923232 C15.0007922,9.46923232 15.3214238,9.15628283 15.3214238,8.77036364 C15.3214238,8.47784848 15.1369846,8.22761616 14.875756,8.12353535 L19.8722772,1.09737374 C20.0241172,0.883626263 20.0419381,0.605323232 19.9184232,0.374888889 Z M6.08127888,1.39773737 L9.12836573,5.68272727 L7.42965574,8.07156566 L6.83040933,8.07156566 L2.08439515,1.39773737 L6.08127888,1.39773737 Z M15.190882,14.5357475 C15.190882,17.3294545 12.8622098,19.6022626 9.99999687,19.6022626 C7.13778391,19.6022626 4.80911178,17.3294545 4.80911178,14.5357475 C4.80911178,11.7420404 7.13778391,9.46923232 9.99999687,9.46923232 C12.8622098,9.46923232 15.190882,11.7420404 15.190882,14.5357475 Z M13.1695844,8.07149495 L9.17277314,8.07149495 L13.9187149,1.39766667 L17.9155986,1.39766667 L13.1695844,8.07149495 Z" id="Shape"></path>
                <path d="M11.304322,16.541604 L10.8521735,16.541604 L10.8521735,11.7291482 C10.8521735,11.4500551 10.7001435,11.1954556 10.4606259,11.0733569 C10.2213194,10.9514059 9.93619278,10.9832769 9.72679961,11.1557643 L8.26590395,12.3588967 C7.96381471,12.6077418 7.91130806,13.0661833 8.14864377,13.3827544 C8.38604988,13.6995468 8.82348804,13.7545834 9.12543651,13.5056645 L9.46088788,13.2293749 L9.46088788,16.541604 L9.00873941,16.541604 C8.62458213,16.541604 8.3130614,16.8681348 8.3130614,17.270802 C8.3130614,17.6734692 8.62458213,18 9.00873941,18 L11.304322,18 C11.6884793,18 12,17.6734692 12,17.270802 C12,16.8681348 11.6884793,16.541604 11.304322,16.541604 Z" id="Shape"></path>
            </g>
        </g>
    </g>
</svg>